<?xml version="1.0" encoding="UTF-8"?>
<svg width="1200pt" height="1200pt" version="1.1" viewBox="0 0 1200 1200" xmlns="http://www.w3.org/2000/svg">
 <path d="m676.8 579.6c10.801-10.801 9.6016-28.801-1.1992-38.398-10.801-10.801-28.801-9.6016-38.398 1.1992l-52.801 56.398-21.602-22.801c-10.801-10.801-27.602-12-38.398-1.1992-10.801 10.801-12 27.602-1.1992 38.398l42 44.398c4.8008 6 12 8.3984 20.398 8.3984 7.1992 0 14.398-3.6016 20.398-8.3984z" fill="#013745"/>
 <path d="m535.2 884.4c0 12 9.6016 20.398 20.398 20.398h90c12 0 20.398-9.6016 20.398-20.398v-46.801c19.199-6 38.398-13.199 55.199-22.801l33.602 33.602c8.3984 8.3984 21.602 8.3984 28.801 0l63.602-63.602c8.3984-8.3984 8.3984-21.602 0-28.801l-33.602-33.602c9.6016-16.801 18-36 22.801-55.199h46.801c12 0 20.398-9.6016 20.398-20.398v-90c0-12-9.6016-20.398-20.398-20.398h-46.801c-6-19.199-13.199-38.398-22.801-55.199l33.602-33.602c8.3984-8.3984 8.3984-21.602 0-28.801l-63.602-63.602c-8.3984-8.3984-21.602-8.3984-28.801 0l-33.602 33.602c-16.801-9.6016-36-18-55.199-22.801v-46.801c0-12-9.6016-20.398-20.398-20.398h-90c-12 0-20.398 9.6016-20.398 20.398v46.801c-19.199 6-38.398 13.199-55.199 22.801l-33.602-33.602c-8.3984-8.3984-21.602-8.3984-28.801 0l-63.602 63.602c-8.3984 8.3984-8.3984 21.602 0 28.801l33.602 33.602c-9.6016 16.801-18 36-22.801 55.199h-46.801c-12 0-20.398 9.6016-20.398 20.398v90c0 12 9.6016 20.398 20.398 20.398h46.801c6 19.199 13.199 38.398 22.801 55.199l-33.602 33.602c-8.3984 8.3984-8.3984 21.602 0 28.801l63.602 63.602c8.3984 8.3984 21.602 8.3984 28.801 0l33.602-33.602c16.801 9.6016 36 18 55.199 22.801zm-84-284.4c0-82.801 67.199-148.8 148.8-148.8 82.801 0 148.8 67.199 148.8 148.8s-66 148.8-148.8 148.8c-81.602 0-148.8-66-148.8-148.8z" fill="#013745"/>
 <path d="m162 600c0-241.2 196.8-438 438-438h1.1992l-21.602 21.602c-12 12-12 30 0 42 6 6 13.199 8.3984 21.602 8.3984 7.1992 0 15.602-2.3984 21.602-8.3984l73.199-73.199c6-6 8.3984-13.199 8.3984-21.602 0-8.3984-3.6016-15.602-8.3984-21.602l-73.199-73.199c-12-12-30-12-42 0s-12 30 0 42l21.602 21.602h-1.1992c-274.8 3.5977-498 226.8-498 500.4 0 139.2 55.199 267.6 156 362.4 6 4.8008 13.199 8.3984 20.398 8.3984 8.3984 0 15.602-3.6016 21.602-9.6016 10.801-12 10.801-31.199-1.1992-42-88.801-83.996-138-196.8-138-319.2z" fill="#013745"/>
 <path d="m1096.8 600c0-139.2-55.199-267.6-156-362.4-12-10.801-31.199-10.801-42 1.1992-10.801 13.199-10.801 31.199 1.1992 43.199 88.801 82.801 138 196.8 138 318 0 241.2-196.8 438-438 438h-1.1992l21.602-21.602c12-12 12-30 0-42s-30-12-42 0l-73.199 73.199c-6 6-8.3984 13.199-8.3984 21.602 0 8.3984 3.6016 15.602 8.3984 21.602l73.199 73.199c6 6 13.199 8.3984 21.602 8.3984 7.1992 0 15.602-2.3984 21.602-8.3984 12-12 12-30 0-42l-21.602-21.602h1.1992c272.4-3.5977 495.6-226.8 495.6-500.4z" fill="#013745"/>
</svg>
