<?xml version="1.0" encoding="UTF-8"?>
<svg width="1200pt" height="1200pt" version="1.1" viewBox="0 0 1200 1200" xmlns="http://www.w3.org/2000/svg">
 <path d="m839.06 709.45c-11.953-11.953 6.0938-30 18.281-18.281l19.219 19.219 49.219-43.828h-105.7v98.672h109.22v-67.5l-44.062 39.375c-4.9219 4.9219-13.125 4.9219-18.281 0zm111.56-65.156 10.547-9.375c12.656-11.25 29.531 7.7344 17.109 19.219l-23.438 20.859v103.12c0 7.0312-5.625 12.891-12.891 12.891h-134.77c-7.0312 0-12.891-5.625-12.891-12.891v-49.219h-266.48c-3.9844 0-7.2656-1.6406-9.8438-4.4531l-26.25-26.25c-32.812 19.219-70.547 30.938-110.62 33.047v337.73h519.84v-138.05c0-7.0312 5.625-12.891 12.891-12.891h138.05v-786.56h-670.78v108.52c54.609 2.8125 104.53 23.438 143.91 56.25 5.3906-3.75 10.781-8.6719 16.406-8.6719h252.66v-49.219c0-7.0312 5.625-12.891 12.891-12.891h134.77c3.5156 0 6.5625 1.4062 8.9062 3.75l10.078-9.1406c12.656-11.25 29.531 7.7344 17.109 18.984l-23.438 20.859v102.66c0 7.0312-5.625 12.891-12.891 12.891h-134.77c-7.0312 0-12.891-5.625-12.891-12.891v-49.219h-248.44l-1.1719 0.70312c45.469 46.875 72.188 111.09 69.609 180.94h180.47v-49.453c0-7.0312 5.625-12.891 12.891-12.891h134.77c3.5156 0 6.5625 1.4062 8.9062 3.75l10.312-9.1406c12.656-11.25 29.531 7.7344 17.109 18.984l-23.438 20.859v102.66c0 7.0312-5.625 12.891-12.891 12.891h-134.77c-7.0312 0-12.891-5.625-12.891-12.891v-49.219h-182.81c-9.6094 66.094-45.469 124.45-97.734 162.66l19.453 19.453h261.09v-49.453c0-7.0312 5.625-12.891 12.891-12.891h134.77c3.2812 0.46875 6.3281 1.6406 8.6719 3.9844zm-111.56-142.27c-11.953-11.953 6.0938-30 18.281-18.047l19.219 19.219 49.688-44.297h-106.17v98.672h109.22v-67.031l-44.297 39.141c-4.9219 4.9219-13.125 4.9219-18.281 0zm0-207.42c-11.953-11.953 6.0938-30 18.281-18.281l19.219 19.219 49.688-44.531h-106.41v98.672h109.22v-67.031l-44.062 39.375c-4.9219 4.9219-13.125 4.9219-18.281 0zm-366.09 384.61-26.953-26.719c-11.953-11.719 6.0938-30 18.047-18.047l31.172 30.938c47.578-33.75 80.859-85.312 90.234-144.38h-16.172c-16.875 0-16.875-25.547 0-25.547h18.75c2.8125-64.453-22.266-123.98-65.156-166.17l-22.266 15.469c-5.8594 3.9844-13.828 2.5781-17.812-3.2812s-2.5781-13.828 3.2812-17.812l16.875-11.719c-87.422-67.969-212.11-60-290.39 18.281-85.781 86.016-85.781 225.23 0 311.25 68.672 68.438 174.61 83.906 260.39 37.734zm-183.98-224.77-53.672-30.938v138.75l120.23 69.375v-138.75zm6.3281-25.781 120.23-69.375-47.344-27.188-66.328 38.203-53.672 30.938zm145.78-54.609-120 69.375 47.344 27.188 120.23-69.375zm-60 118.83v138.75l120-69.375v-138.75zm-5.3906 171.33c-4.4531 3.2812-10.078 3.0469-14.531 0.23438l-72.188-41.719-72.891-41.953c-3.9844-2.3438-6.3281-6.7969-6.3281-11.016v-168.28c0-5.1562 3.0469-9.6094 7.5-11.719l71.719-41.484 72.891-42.188c4.2188-2.3438 9.1406-2.1094 13.125 0l73.359 42.422 71.484 41.25c4.4531 2.3438 7.0312 6.5625 7.0312 11.484v168.28c0 5.1562-3.0469 9.6094-7.5 11.719zm-20.156 66.797c-130.08-6.7969-232.97-114.38-232.97-245.39s102.89-238.83 232.97-245.39v-121.64c0-7.0312 5.625-12.891 12.891-12.891h696.33c7.0312 0 12.891 5.8594 12.891 12.891v812.11c0 3.5156-1.4062 6.5625-3.75 9.1406l-151.64 151.64c-1.1719 1.4062-5.3906 3.0469-8.2031 3.0469h-545.86c-7.0312 0-12.891-5.625-12.891-12.891v-350.62zm123.28 240.7c-16.875 0-16.875-25.547 0-25.547h340.31c16.875 0 16.875 25.547 0 25.547zm0-83.203c-16.875 0-16.875-25.547 0-25.547h192.66c16.875 0 16.875 25.547 0 25.547zm554.77 54.844h-106.88v106.88z" fill="#013745"/>
</svg>
